<?xml version="1.0" encoding="UTF-8" standalone="no"?>
<svg width="1000" height="800" xmlns="http://www.w3.org/2000/svg">
  <!-- 背景 -->
  <rect width="1000" height="800" fill="#f8f9fa" />
  
  <!-- 标题 -->
  <text x="500" y="40" font-family="Arial, sans-serif" font-size="24" text-anchor="middle" font-weight="bold" fill="#333">传感器客户端与服务端通信架构</text>
  
  <!-- 客户端区域 -->
  <rect x="50" y="80" width="400" height="650" rx="10" ry="10" fill="#e3f2fd" stroke="#2196f3" stroke-width="2" />
  <text x="250" y="110" font-family="Arial, sans-serif" font-size="20" text-anchor="middle" font-weight="bold" fill="#0d47a1">客户端 (Client)</text>
  
  <!-- 服务端区域 -->
  <rect x="550" y="80" width="400" height="650" rx="10" ry="10" fill="#fff3e0" stroke="#ff9800" stroke-width="2" />
  <text x="750" y="110" font-family="Arial, sans-serif" font-size="20" text-anchor="middle" font-weight="bold" fill="#e65100">服务端 (Server)</text>
  
  <!-- 客户端文件 -->
  <!-- sensor_agent_proxy -->
  <rect x="100" y="150" width="300" height="80" rx="5" ry="5" fill="#bbdefb" stroke="#64b5f6" stroke-width="1" />
  <text x="250" y="180" font-family="Arial, sans-serif" font-size="16" text-anchor="middle" font-weight="bold" fill="#333">SensorAgentProxy</text>
  <text x="250" y="205" font-family="Arial, sans-serif" font-size="12" text-anchor="middle" fill="#333">sensor_agent_proxy.h/cpp</text>
  
  <!-- sensor_service_client -->
  <rect x="100" y="250" width="300" height="80" rx="5" ry="5" fill="#bbdefb" stroke="#64b5f6" stroke-width="1" />
  <text x="250" y="280" font-family="Arial, sans-serif" font-size="16" text-anchor="middle" font-weight="bold" fill="#333">SensorServiceClient</text>
  <text x="250" y="305" font-family="Arial, sans-serif" font-size="12" text-anchor="middle" fill="#333">sensor_service_client.h/cpp</text>
  
  <!-- sensor_service_proxy -->
  <rect x="100" y="350" width="300" height="80" rx="5" ry="5" fill="#bbdefb" stroke="#64b5f6" stroke-width="1" />
  <text x="250" y="380" font-family="Arial, sans-serif" font-size="16" text-anchor="middle" font-weight="bold" fill="#333">SensorServiceProxy</text>
  <text x="250" y="405" font-family="Arial, sans-serif" font-size="12" text-anchor="middle" fill="#333">sensor_service_proxy.h/cpp</text>
  
  <!-- sensor_client_stub -->
  <rect x="100" y="450" width="300" height="80" rx="5" ry="5" fill="#bbdefb" stroke="#64b5f6" stroke-width="1" />
  <text x="250" y="480" font-family="Arial, sans-serif" font-size="16" text-anchor="middle" font-weight="bold" fill="#333">SensorClientStub</text>
  <text x="250" y="505" font-family="Arial, sans-serif" font-size="12" text-anchor="middle" fill="#333">sensor_client_stub.h/cpp</text>
  
  <!-- sensor_client_proxy -->
  <rect x="100" y="550" width="300" height="80" rx="5" ry="5" fill="#bbdefb" stroke="#64b5f6" stroke-width="1" />
  <text x="250" y="580" font-family="Arial, sans-serif" font-size="16" text-anchor="middle" font-weight="bold" fill="#333">SensorClientProxy</text>
  <text x="250" y="605" font-family="Arial, sans-serif" font-size="12" text-anchor="middle" fill="#333">sensor_client_proxy.h/cpp</text>
  
  <!-- 服务端文件 -->
  <!-- sensor_service -->
  <rect x="600" y="150" width="300" height="80" rx="5" ry="5" fill="#ffe0b2" stroke="#ffb74d" stroke-width="1" />
  <text x="750" y="180" font-family="Arial, sans-serif" font-size="16" text-anchor="middle" font-weight="bold" fill="#333">SensorService</text>
  <text x="750" y="205" font-family="Arial, sans-serif" font-size="12" text-anchor="middle" fill="#333">sensor_service.h/cpp</text>
  
  <!-- sensor_service_stub -->
  <rect x="600" y="250" width="300" height="80" rx="5" ry="5" fill="#ffe0b2" stroke="#ffb74d" stroke-width="1" />
  <text x="750" y="280" font-family="Arial, sans-serif" font-size="16" text-anchor="middle" font-weight="bold" fill="#333">SensorServiceStub</text>
  <text x="750" y="305" font-family="Arial, sans-serif" font-size="12" text-anchor="middle" fill="#333">sensor_service_stub.h/cpp</text>
  
  <!-- 连接线 -->
  <!-- SensorAgentProxy -> SensorServiceClient -->
  <line x1="250" y1="230" x2="250" y2="250" stroke="#333" stroke-width="2" />
  <polygon points="245,250 250,260 255,250" fill="#333" />
  
  <!-- SensorServiceClient -> SensorServiceProxy -->
  <line x1="250" y1="330" x2="250" y2="350" stroke="#333" stroke-width="2" />
  <polygon points="245,350 250,360 255,350" fill="#333" />
  
  <!-- SensorServiceClient -> SensorClientStub -->
  <line x1="250" y1="330" x2="250" y2="450" stroke="#333" stroke-width="2" stroke-dasharray="5,3" />
  <polygon points="245,450 250,460 255,450" fill="#333" />
  
  <!-- SensorServiceProxy -> SensorService (IPC) -->
  <line x1="400" y1="390" x2="600" y2="190" stroke="#333" stroke-width="2" />
  <polygon points="595,190 600,180 605,190" fill="#333" />
  <text x="500" y="270" font-family="Arial, sans-serif" font-size="14" text-anchor="middle" fill="#333" transform="rotate(-30, 500, 270)">IPC 请求</text>
  
  <!-- SensorService -> SensorClientProxy (IPC) -->
  <line x1="600" y1="190" x2="400" y2="580" stroke="#333" stroke-width="2" />
  <polygon points="395,580 400,590 405,580" fill="#333" />
  <text x="500" y="370" font-family="Arial, sans-serif" font-size="14" text-anchor="middle" fill="#333" transform="rotate(30, 500, 370)">IPC 回调</text>
  
  <!-- SensorService -> SensorServiceStub -->
  <line x1="750" y1="230" x2="750" y2="250" stroke="#333" stroke-width="2" />
  <polygon points="745,250 750,260 755,250" fill="#333" />
  
  <!-- 图例 -->
  <rect x="100" y="650" width="20" height="20" fill="#bbdefb" stroke="#64b5f6" stroke-width="1" />
  <text x="130" y="665" font-family="Arial, sans-serif" font-size="12" fill="#333">客户端组件</text>
  
  <rect x="250" y="650" width="20" height="20" fill="#ffe0b2" stroke="#ffb74d" stroke-width="1" />
  <text x="280" y="665" font-family="Arial, sans-serif" font-size="12" fill="#333">服务端组件</text>
  
  <line x1="600" y1="650" x2="630" y2="650" stroke="#333" stroke-width="2" />
  <polygon points="625,650 630,655 635,650" fill="#333" />
  <text x="650" y="655" font-family="Arial, sans-serif" font-size="12" fill="#333">直接调用</text>
  
  <line x1="600" y1="680" x2="630" y2="680" stroke="#333" stroke-width="2" stroke-dasharray="5,3" />
  <polygon points="625,680 630,685 635,680" fill="#333" />
  <text x="650" y="685" font-family="Arial, sans-serif" font-size="12" fill="#333">创建/持有关系</text>
  
  <line x1="700" y1="650" x2="730" y2="650" stroke="#333" stroke-width="2" />
  <text x="750" y="655" font-family="Arial, sans-serif" font-size="12" fill="#333">IPC 通信</text>
</svg>
