<?xml version="1.0" encoding="UTF-8" standalone="no"?>
<svg width="900" height="1200" xmlns="http://www.w3.org/2000/svg">
  <!-- 背景 -->
  <rect width="900" height="1200" fill="#f8f9fa" />
  
  <!-- 标题 -->
  <text x="450" y="40" font-family="Arial, sans-serif" font-size="24" text-anchor="middle" font-weight="bold" fill="#333">OpenHarmony 传感器 on() 函数调用流程</text>
  
  <!-- 应用层 -->
  <rect x="50" y="80" width="800" height="120" rx="5" ry="5" fill="#e3f2fd" stroke="#2196f3" stroke-width="2" />
  <text x="450" y="110" font-family="Arial, sans-serif" font-size="18" text-anchor="middle" font-weight="bold" fill="#0d47a1">应用层 (Application Layer)</text>
  <rect x="100" y="130" width="700" height="50" rx="5" ry="5" fill="#bbdefb" stroke="#64b5f6" stroke-width="1" />
  <text x="450" y="160" font-family="Arial, sans-serif" font-size="14" text-anchor="middle" fill="#333">sensor.on(sensorTypeId, callback, options) - sensor_js.cpp</text>
  
  <!-- 框架层 -->
  <rect x="50" y="220" width="800" height="220" rx="5" ry="5" fill="#e8f5e9" stroke="#4caf50" stroke-width="2" />
  <text x="450" y="250" font-family="Arial, sans-serif" font-size="18" text-anchor="middle" font-weight="bold" fill="#1b5e20">框架层 (Framework Layer)</text>
  <rect x="100" y="270" width="700" height="50" rx="5" ry="5" fill="#c8e6c9" stroke="#81c784" stroke-width="1" />
  <text x="450" y="300" font-family="Arial, sans-serif" font-size="14" text-anchor="middle" fill="#333">SubscribeSensor(sensorTypeId, interval, DataCallbackImpl) - sensor_js.cpp</text>
  <rect x="100" y="330" width="700" height="50" rx="5" ry="5" fill="#c8e6c9" stroke="#81c784" stroke-width="1" />
  <text x="450" y="360" font-family="Arial, sans-serif" font-size="14" text-anchor="middle" fill="#333">SubscribeSensor(sensorTypeId, &user) - sensor_agent.cpp</text>
  <rect x="100" y="390" width="700" height="30" rx="5" ry="5" fill="#c8e6c9" stroke="#81c784" stroke-width="1" />
  <text x="450" y="410" font-family="Arial, sans-serif" font-size="14" text-anchor="middle" fill="#333">ActivateSensor(sensorTypeId, &user) - sensor_agent.cpp</text>
  
  <!-- 服务层 -->
  <rect x="50" y="460" width="800" height="220" rx="5" ry="5" fill="#fff3e0" stroke="#ff9800" stroke-width="2" />
  <text x="450" y="490" font-family="Arial, sans-serif" font-size="18" text-anchor="middle" font-weight="bold" fill="#e65100">服务层 (Service Layer)</text>
  <rect x="100" y="510" width="700" height="50" rx="5" ry="5" fill="#ffe0b2" stroke="#ffb74d" stroke-width="1" />
  <text x="450" y="540" font-family="Arial, sans-serif" font-size="14" text-anchor="middle" fill="#333">EnableSensor(sensorId, samplingPeriodNs, maxReportDelayNs) - sensor_service.cpp</text>
  <rect x="100" y="570" width="700" height="50" rx="5" ry="5" fill="#ffe0b2" stroke="#ffb74d" stroke-width="1" />
  <text x="450" y="600" font-family="Arial, sans-serif" font-size="14" text-anchor="middle" fill="#333">SaveSubscriber(sensorId, samplingPeriodNs, maxReportDelayNs) - sensor_service.cpp</text>
  <rect x="100" y="630" width="700" height="30" rx="5" ry="5" fill="#ffe0b2" stroke="#ffb74d" stroke-width="1" />
  <text x="450" y="650" font-family="Arial, sans-serif" font-size="14" text-anchor="middle" fill="#333">sensorHdiConnection_.EnableSensor(sensorId) - sensor_service.cpp</text>
  
  <!-- HDI层 -->
  <rect x="50" y="700" width="800" height="160" rx="5" ry="5" fill="#f3e5f5" stroke="#9c27b0" stroke-width="2" />
  <text x="450" y="730" font-family="Arial, sans-serif" font-size="18" text-anchor="middle" font-weight="bold" fill="#4a148c">HDI层 (Hardware Device Interface)</text>
  <rect x="100" y="750" width="700" height="50" rx="5" ry="5" fill="#e1bee7" stroke="#ce93d8" stroke-width="1" />
  <text x="450" y="780" font-family="Arial, sans-serif" font-size="14" text-anchor="middle" fill="#333">EnableSensor(sensorId) - hdi_connection.cpp</text>
  <rect x="100" y="810" width="700" height="30" rx="5" ry="5" fill="#e1bee7" stroke="#ce93d8" stroke-width="1" />
  <text x="450" y="830" font-family="Arial, sans-serif" font-size="14" text-anchor="middle" fill="#333">g_sensorInterface->Enable(sensorId) - hdi_connection.cpp</text>
  
  <!-- 驱动层 -->
  <rect x="50" y="880" width="800" height="220" rx="5" ry="5" fill="#ffebee" stroke="#f44336" stroke-width="2" />
  <text x="450" y="910" font-family="Arial, sans-serif" font-size="18" text-anchor="middle" font-weight="bold" fill="#b71c1c">驱动层 (Driver Layer)</text>
  <rect x="100" y="930" width="700" height="50" rx="5" ry="5" fill="#ffcdd2" stroke="#ef9a9a" stroke-width="1" />
  <text x="450" y="960" font-family="Arial, sans-serif" font-size="14" text-anchor="middle" fill="#333">EnableSensor(sensorId) - sensor_controller.c</text>
  <rect x="100" y="990" width="700" height="50" rx="5" ry="5" fill="#ffcdd2" stroke="#ef9a9a" stroke-width="1" />
  <text x="450" y="1020" font-family="Arial, sans-serif" font-size="14" text-anchor="middle" fill="#333">SendSensorMsg(sensorId, msg, NULL) - sensor_controller.c</text>
  <rect x="100" y="1050" width="700" height="30" rx="5" ry="5" fill="#ffcdd2" stroke="#ef9a9a" stroke-width="1" />
  <text x="450" y="1070" font-family="Arial, sans-serif" font-size="14" text-anchor="middle" fill="#333">ioService->dispatcher->Dispatch(...) - sensor_controller.c</text>
  
  <!-- 硬件层 -->
  <rect x="50" y="1120" width="800" height="60" rx="5" ry="5" fill="#e0e0e0" stroke="#616161" stroke-width="2" />
  <text x="450" y="1155" font-family="Arial, sans-serif" font-size="18" text-anchor="middle" font-weight="bold" fill="#212121">硬件层 (Hardware)</text>
  
  <!-- 连接线 -->
  <defs>
    <marker id="arrowhead" markerWidth="10" markerHeight="7" refX="0" refY="3.5" orient="auto">
      <polygon points="0 0, 10 3.5, 0 7" fill="#333" />
    </marker>
  </defs>
  
  <!-- 应用层到框架层 -->
  <line x1="450" y1="180" x2="450" y2="270" stroke="#333" stroke-width="2" stroke-dasharray="5,3" marker-end="url(#arrowhead)" />
  
  <!-- 框架层内部 -->
  <line x1="450" y1="320" x2="450" y2="330" stroke="#333" stroke-width="2" stroke-dasharray="5,3" marker-end="url(#arrowhead)" />
  <line x1="450" y1="380" x2="450" y2="390" stroke="#333" stroke-width="2" stroke-dasharray="5,3" marker-end="url(#arrowhead)" />
  
  <!-- 框架层到服务层 -->
  <line x1="450" y1="420" x2="450" y2="510" stroke="#333" stroke-width="2" stroke-dasharray="5,3" marker-end="url(#arrowhead)" />
  
  <!-- 服务层内部 -->
  <line x1="450" y1="560" x2="450" y2="570" stroke="#333" stroke-width="2" stroke-dasharray="5,3" marker-end="url(#arrowhead)" />
  <line x1="450" y1="620" x2="450" y2="630" stroke="#333" stroke-width="2" stroke-dasharray="5,3" marker-end="url(#arrowhead)" />
  
  <!-- 服务层到HDI层 -->
  <line x1="450" y1="660" x2="450" y2="750" stroke="#333" stroke-width="2" stroke-dasharray="5,3" marker-end="url(#arrowhead)" />
  
  <!-- HDI层内部 -->
  <line x1="450" y1="800" x2="450" y2="810" stroke="#333" stroke-width="2" stroke-dasharray="5,3" marker-end="url(#arrowhead)" />
  
  <!-- HDI层到驱动层 -->
  <line x1="450" y1="840" x2="450" y2="930" stroke="#333" stroke-width="2" stroke-dasharray="5,3" marker-end="url(#arrowhead)" />
  
  <!-- 驱动层内部 -->
  <line x1="450" y1="980" x2="450" y2="990" stroke="#333" stroke-width="2" stroke-dasharray="5,3" marker-end="url(#arrowhead)" />
  <line x1="450" y1="1040" x2="450" y2="1050" stroke="#333" stroke-width="2" stroke-dasharray="5,3" marker-end="url(#arrowhead)" />
  
  <!-- 驱动层到硬件层 -->
  <line x1="450" y1="1080" x2="450" y2="1120" stroke="#333" stroke-width="2" stroke-dasharray="5,3" marker-end="url(#arrowhead)" />
  
  <!-- 数据流返回路径 -->
  <path d="M 800 600 C 850 600, 850 1000, 800 1000" stroke="#f44336" stroke-width="2" stroke-dasharray="5,3" fill="none" marker-end="url(#arrowhead)" />
  <text x="860" y="800" font-family="Arial, sans-serif" font-size="14" text-anchor="middle" fill="#f44336" transform="rotate(90, 860, 800)">数据回传路径</text>
</svg>
